# xmcd
#
# Track frame offsets:
# 150
# 33195
# 63040
# 101250
# 108507
# 119685
# 128337
# 147705
# 168357
# 177032
# 185607
# 203967
# 224102
#
# Disc length: 3229 seconds
#
#
# Revision: 2
# Processed by: cddbd v1.5.1PL0 Copyright (c) Steve Scherf et al.
# Submitted via: FreeRIP 2.52 
#
DISCID=bd0c9b0d
DTITLE=Chopin - Andsnes - Virgin VCK 7 91501-2 [CD2)
DYEAR=1992
DGENRE=Classical
TTITLE0=Klaviersonate Nr. 2 b-moll op. 35 - I. Grave - Doppio movimento
TTITLE1=Klaviersonate Nr. 2 b-moll op. 35 - II. Scherzo
TTITLE2=Klaviersonate Nr. 2 b-moll op. 35 - III. Marche funèbre. Lento
TTITLE3=Klaviersonate Nr. 2 b-moll op. 35 - IV. Finale. Presto
TTITLE4=Mazurka B-Dur op. 17/1 - Vivo e risoluto
TTITLE5=Mazurka e-moll op. 17/2 - Lento, ma non troppo
TTITLE6=Mazurka As-Dur op. 17/3 - Legato assai
TTITLE7=Mazurka a-moll op. 17/4 - Lento, ma non troppo
TTITLE8=Étude F-Dur op. 25/3 - Allegro
TTITLE9=Étude a-moll op. 25/4 - Agitato
TTITLE10=Étude es-moll op. 10/6 - Andante
TTITLE11=Étude h-moll op. 25/10 - Allegro con fuoco - Lento - Tempo 1
TTITLE12=Étude a-moll op. 25/11 - Allegro con brio
EXTD=
EXTT0=
EXTT1=
EXTT2=
EXTT3=
EXTT4=
EXTT5=
EXTT6=
EXTT7=
EXTT8=
EXTT9=
EXTT10=
EXTT11=
EXTT12=
PLAYORDER=
